<svg width="94" height="45" fill="none" xmlns="http://www.w3.org/2000/svg"><path d="M47.425 21.408a2.947 2.947 0 01-.605-1.988v-2.884c0-.883.2-1.555.602-2.015.4-.46 1.089-.688 2.065-.686.917 0 1.569.196 1.953.587.42.499.625 1.109.578 1.724v.678h-1.64v-.687c.005-.224-.01-.449-.048-.671a.65.65 0 00-.235-.399.948.948 0 00-.594-.155 1.005 1.005 0 00-.625.164.768.768 0 00-.272.44 3.332 3.332 0 00-.065.713v3.499c-.026.337.047.675.21.982a.77.77 0 00.328.238c.133.052.28.071.424.055a.893.893 0 00.58-.158.704.704 0 00.245-.425 3.86 3.86 0 00.051-.701v-.71h1.641v.648a2.64 2.64 0 01-.567 1.813c-.377.428-1.02.642-1.964.642s-1.658-.229-2.062-.704zM54.257 21.438c-.414-.45-.622-1.103-.622-1.968v-3.033c0-.857.208-1.505.622-1.945.414-.44 1.107-.659 2.079-.657.965 0 1.654.22 2.069.657.414.44.625 1.088.625 1.945v3.032c0 .857-.21 1.514-.632 1.966-.421.451-1.107.677-2.062.677-.955 0-1.661-.229-2.08-.674zm2.843-.728c.149-.281.216-.589.197-.897v-3.714a1.649 1.649 0 00-.193-.88.775.775 0 00-.335-.241.905.905 0 00-.433-.052.917.917 0 00-.434.052.787.787 0 00-.337.242c-.15.274-.217.576-.197.88v3.73c-.02.309.047.617.197.898.096.094.214.17.346.222a1.16 1.16 0 00.843 0c.133-.052.25-.128.346-.222v-.018zM61.004 13.924h1.766l1.328 5.595 1.36-5.595h1.718L67.35 22h-1.27l-.137-5.613L64.632 22h-1.02l-1.358-5.634L62.128 22h-1.284l.16-8.076zM69.33 13.924h2.752c1.585 0 2.378.764 2.378 2.293 0 1.464-.835 2.196-2.504 2.194h-.937V22H69.32l.01-8.077zm2.351 3.451c.168.019.338.006.5-.039.161-.044.31-.117.434-.216.195-.273.281-.593.245-.912a2.529 2.529 0 00-.082-.733.592.592 0 00-.125-.222.701.701 0 00-.214-.162 1.756 1.756 0 00-.758-.13h-.659v2.414h.66zM76.91 13.924h1.824L80.606 22h-1.584l-.37-1.862h-1.627L76.645 22h-1.607l1.871-8.076zm1.559 5.279l-.635-3.39-.636 3.39h1.27zM82.117 13.924h1.19l2.276 4.607v-4.607h1.41V22H85.86l-2.29-4.81V22h-1.457l.003-8.076zM90.294 18.92l-1.892-4.985h1.593l1.155 3.203 1.084-3.203h1.56l-1.869 4.986V22h-1.63v-3.08zM50.048 25.532v.422h-1.386v3.282h-.581v-3.282h-1.393v-.422h3.36zM54.393 29.236h-.449a.199.199 0 01-.126-.035.193.193 0 01-.074-.085l-.401-.88H51.42l-.4.88a.242.242 0 01-.062.1.207.207 0 01-.126.035h-.448l1.698-3.704h.591l1.72 3.69zm-2.813-1.375h1.603l-.68-1.508a2.694 2.694 0 01-.125-.349c-.024.07-.044.138-.065.197l-.06.155-.673 1.505zM57.321 28.872c.106.005.213.005.32 0 .091-.008.182-.023.271-.044.083-.017.165-.04.245-.067.075-.026.15-.059.227-.091v-.833h-.68a.14.14 0 01-.09-.03.087.087 0 01-.027-.03.076.076 0 01-.008-.037v-.284h1.318v1.42a2.573 2.573 0 01-.716.301c-.14.036-.281.061-.425.077-.165.015-.33.023-.496.023a2.595 2.595 0 01-.856-.138 2.091 2.091 0 01-.68-.387 1.79 1.79 0 01-.438-.587 1.85 1.85 0 01-.156-.768 1.923 1.923 0 01.153-.774c.097-.22.247-.42.438-.587.194-.167.425-.298.68-.384.29-.095.6-.142.91-.138.158 0 .316.01.472.032.138.02.274.051.404.094.12.038.233.088.34.147.104.058.203.122.296.193l-.163.229a.14.14 0 01-.056.05.17.17 0 01-.077.02.224.224 0 01-.105-.029 2.113 2.113 0 01-.167-.088 1.519 1.519 0 00-.227-.1 2.144 2.144 0 00-.313-.082 2.625 2.625 0 00-.431-.032 2.01 2.01 0 00-.656.103c-.189.065-.36.165-.5.293a1.29 1.29 0 00-.315.46 1.731 1.731 0 000 1.235c.074.174.19.333.34.467.139.127.308.227.495.293.216.064.445.089.673.073zM62.736 28.814h1.855v.422H62.17v-3.704h.58l-.013 3.282zM66.52 29.236h-.58v-3.704h.58v3.704zM68.681 25.55a.28.28 0 01.089.067l2.483 2.792a.881.881 0 010-.132V25.517h.506v3.72h-.292a.275.275 0 01-.126-.021.328.328 0 01-.091-.07l-2.48-2.79v2.88h-.486v-3.704h.302c.033 0 .066.006.095.017zM76.037 25.532v.407h-2.06v1.223h1.669v.393h-1.668v1.265h2.059v.407H73.38v-3.695h2.657zM15.162 2.655L40.957 8.98v22.158l-25.795-6.32V2.654zM13.507.767v25.126l29.1 7.136V7.905L13.508.767z" fill="#AFB1B8"/><path d="M29.104 44.692L0 37.55V12.427l29.104 7.139v25.126z" fill="#AFB1B8"/><path d="M13.99 2.37l25.458 6.245-10.826 9.35-25.463-6.247L13.99 2.37zM13.507.768L0 12.427l29.104 7.14L42.608 7.904 13.508.767zM30.741 43.279L42.608 33.03 30.742 30.12v13.16z" fill="#AFB1B8"/></svg>