<svg width="63" height="47" fill="none" xmlns="http://www.w3.org/2000/svg"><path d="M4.757 38.735c.244.276.373.622.367.977a1.43 1.43 0 01-.131.676 1.557 1.557 0 01-.438.558 2.627 2.627 0 01-1.651.45H0v-6.19h2.844a2.592 2.592 0 011.576.41c.184.142.33.32.425.52.096.201.139.42.127.64.016.34-.1.676-.33.946-.221.246-.526.416-.866.484.385.064.733.252.98.53zm-3.406-.934h1.216c.276.018.55-.055.773-.206a.738.738 0 00.207-.275.679.679 0 00.054-.33.701.701 0 00-.055-.329.76.76 0 00-.203-.276 1.255 1.255 0 00-.796-.209H1.35v1.625zm2.108 2.374a.774.774 0 00.224-.284.71.71 0 00.063-.345.723.723 0 00-.066-.35.788.788 0 00-.228-.285 1.339 1.339 0 00-.826-.224H1.351v1.703h1.292c.29.015.578-.06.816-.215zM10.57 41.397l-1.581-2.42h-.595v2.42H7.033v-6.191H9.61a2.698 2.698 0 011.793.526c.36.336.578.779.613 1.248.035.47-.114.936-.421 1.314a2.147 2.147 0 01-1.229.629l1.685 2.474h-1.48zm-2.176-3.264h1.113c.773 0 1.16-.312 1.16-.937a.852.852 0 00-.063-.375.916.916 0 00-.221-.321 1.282 1.282 0 00-.876-.251H8.381l.013 1.884zM18.01 40.15h-2.712l-.479 1.247h-1.427l2.49-6.122h1.543l2.481 6.122H18.48l-.469-1.246zm-.363-.937l-.991-2.613-.991 2.613h1.982zM27.322 41.397h-1.35l-3.03-4.21v4.21h-1.348v-6.192h1.348l3.03 4.235v-4.235h1.35v6.192zM35.032 39.915c-.279.467-.704.848-1.222 1.092a4.287 4.287 0 01-1.9.39h-2.404v-6.192h2.405a4.376 4.376 0 011.9.382c.516.238.943.615 1.221 1.08.279.503.424 1.06.424 1.624 0 .564-.145 1.12-.424 1.624zm-1.545-.148c.385-.412.597-.936.597-1.478a2.16 2.16 0 00-.598-1.477 2.489 2.489 0 00-1.69-.527h-.939v4.008h.938a2.488 2.488 0 001.691-.526zM18.856.767s17.438 6.028 17.068 14.75v14.755S18.5 24.241 18.862 15.518L18.856.767zM51.46 26.818c3.294-2.075 7.103-3.36 11.08-3.739v-4.618c-4.582 1.617-8.469 4.549-11.08 8.357z" fill="#AFB1B8"/><path d="M49.481 28.21c2.696-4.97 7.37-8.806 13.059-10.717V4.185s-24.835 8.587-24.31 21.009V46.2s1.107-.384 2.848-1.104c0-.671 0-1.349.079-2.03.514-5.767 3.508-11.11 8.325-14.857z" fill="#AFB1B8"/><path d="M47.12 36.013a20.05 20.05 0 01.869-4.301c-3 3.235-4.816 7.25-5.193 11.479-.037.399-.057.798-.066 1.21a74.697 74.697 0 004.776-2.305c-.44-2.001-.57-4.049-.386-6.083zM48.107 36.089a19.058 19.058 0 00.308 5.508c6.785-3.718 14.41-9.462 14.115-16.403v-.605c-4.848.497-9.383 2.437-12.91 5.523a19.256 19.256 0 00-1.513 5.977z" fill="#AFB1B8"/></svg>