<svg width="45" height="42" fill="none" xmlns="http://www.w3.org/2000/svg"><path d="M7.406 41.101c.016 0 .032.004.046.01a.122.122 0 01.039.024l.218.208c-.17.169-.379.304-.614.396a2.39 2.39 0 01-.87.142c-.28.005-.558-.04-.817-.133a1.793 1.793 0 01-.616-.374 1.674 1.674 0 01-.398-.578 1.927 1.927 0 01-.14-.742 1.724 1.724 0 01.573-1.322c.186-.163.409-.291.654-.377.269-.09.555-.135.843-.132a2.27 2.27 0 01.782.12c.216.082.415.195.587.335l-.183.222a.178.178 0 01-.046.04.125.125 0 01-.074.017.178.178 0 01-.08-.023l-.097-.06-.137-.076a1.55 1.55 0 00-.43-.132 1.892 1.892 0 00-.325-.024 1.759 1.759 0 00-.605.1 1.39 1.39 0 00-.475.28c-.135.128-.24.28-.308.445a1.499 1.499 0 00-.111.587 1.53 1.53 0 00.111.597c.067.164.17.314.303.443.125.12.28.215.453.275.178.064.369.096.561.095.112.001.223-.005.333-.019a1.316 1.316 0 00.72-.306.171.171 0 01.103-.038zM13.704 40.054a1.81 1.81 0 01-.147.737 1.593 1.593 0 01-.41.572 1.889 1.889 0 01-.645.375 2.655 2.655 0 01-1.658 0 1.91 1.91 0 01-.64-.377 1.678 1.678 0 01-.415-.578 1.922 1.922 0 010-1.476c.093-.215.234-.412.415-.58.182-.158.4-.281.64-.362a2.61 2.61 0 011.658 0c.242.085.461.213.643.376.18.165.32.36.412.571.101.238.151.489.147.742zm-.572 0a1.566 1.566 0 00-.104-.593 1.22 1.22 0 00-.752-.722 1.916 1.916 0 00-1.205 0 1.297 1.297 0 00-.461.28 1.191 1.191 0 00-.294.443 1.738 1.738 0 000 1.184 1.21 1.21 0 00.755.72c.388.127.816.127 1.205 0 .175-.061.333-.156.46-.277.131-.129.23-.28.292-.443.073-.19.108-.391.104-.592zM18.001 40.675l.058.132c.021-.047.04-.09.062-.132.021-.045.045-.088.071-.13l1.393-2.201c.028-.038.052-.062.08-.069a.373.373 0 01.114-.012h.412v3.58h-.488V39.21 39.1a.972.972 0 010-.124L18.3 41.208a.203.203 0 01-.082.081.247.247 0 01-.12.03h-.079a.244.244 0 01-.12-.03.202.202 0 01-.081-.081l-1.443-2.246v2.874h-.471v-3.573h.411a.374.374 0 01.115.012c.034.015.06.039.076.069l1.423 2.203c.028.04.052.083.071.128zM23.244 40.497v1.34H22.7v-3.574h1.216c.23-.004.459.023.679.078.176.044.34.12.48.223a.922.922 0 01.272.35c.065.146.096.302.093.458a.991.991 0 01-.395.815c-.14.107-.304.188-.483.236a2.307 2.307 0 01-.657.083l-.66-.01zm0-.384h.66c.143.002.286-.017.423-.054a.923.923 0 00.305-.154.687.687 0 00.25-.538.605.605 0 00-.054-.291.69.69 0 00-.19-.244 1.172 1.172 0 00-.734-.192h-.66v1.473zM30.573 41.842h-.43a.204.204 0 01-.12-.033.225.225 0 01-.072-.083l-.37-.864h-1.863l-.384.864a.204.204 0 01-.19.116h-.432l1.636-3.58h.567l1.658 3.58zm-2.7-1.329h1.539l-.65-1.456c-.049-.11-.09-.223-.122-.337l-.063.187c-.019.057-.04.11-.06.152l-.643 1.454zM32.929 38.28c.032.015.06.037.082.063l2.385 2.699v-.126-2.653h.488v3.58h-.272a.265.265 0 01-.112-.022.297.297 0 01-.087-.066l-2.383-2.696a.974.974 0 010 .123V41.842h-.488v-3.579h.289c.033 0 .067.005.098.017zM39.903 40.419v1.421h-.545V40.42l-1.508-2.156h.488a.196.196 0 01.117.03.31.31 0 01.074.081l.943 1.391a1.419 1.419 0 01.166.317l.072-.154a1.22 1.22 0 01.092-.163l.93-1.4a.379.379 0 01.07-.076.182.182 0 01.118-.035h.494l-1.51 2.165zM17.731 32.256c.238.026.478.047.72.066 3.68-1.43 6.791-3.77 8.948-6.728 2.156-2.958 3.261-6.403 3.177-9.904l-4.054-3.522c.824 3.727.438 7.58-1.114 11.128-1.553 3.548-4.21 6.65-7.677 8.96z" fill="#AFB1B8"/><path d="M16.284 32.092l.109.02c3.704-2.303 6.527-5.517 8.106-9.228 1.579-3.711 1.84-7.749.75-11.59l-5.775-5.017c2.335 4.124 3.276 8.74 2.71 13.31-.564 4.57-2.61 8.906-5.9 12.505zM35.868 19.827c-.981 3.846-3.364 7.315-6.794 9.892a21.625 21.625 0 01-3.229 2.014c2.794-.714 5.361-1.975 7.505-3.687 2.144-1.712 3.807-3.828 4.86-6.187l-2.342-2.032z" fill="#AFB1B8"/><path d="M34.949 19.26l-3.334-2.897c-.064 3.303-1.145 6.531-3.13 9.349-1.986 2.817-4.804 5.12-8.16 6.672h.016c.748 0 1.495-.04 2.238-.116 3.137-1.113 5.909-2.883 8.067-5.153 2.159-2.27 3.637-4.968 4.303-7.855zM16.766 4.16L12.788.7C9.232 1.894 6.174 3.993 4.013 6.722 1.853 9.452.691 12.684.68 15.996c.013 3.66 1.431 7.212 4.03 10.093 2.597 2.881 6.227 4.927 10.314 5.814 3.649-3.862 5.785-8.634 6.098-13.623.313-4.99-1.213-9.935-4.356-14.12zM44.14 18.727c-.014-4.342-2.006-8.503-5.54-11.574-3.534-3.07-8.324-4.801-13.322-4.813a21.18 21.18 0 00-6.753 1.092l24.355 21.16a14.353 14.353 0 001.26-5.865z" fill="#AFB1B8"/></svg>